# xmcd
#
# Track frame offsets:
#	150
#	10112
#	19811
#	30799
#	42906
#	55443
#	66624
#	81424
#	91583
#	104428
#	116622
#	127652
#	138457
#	149517
#	161237
#	170830
#
# Disc length: 2416 seconds
#
# Revision: 0
# Processed by: cddbd v1.5.1PL0 Copyright (c) Steve Scherf et al.
# Submitted via: audiograbber 1.83.01
#
DISCID=db096e10
DTITLE=Jimmy C. Newman - Jimmy 'C' Newman
DYEAR=1900
DGENRE=Cajun
TTITLE0=Alligator Man
TTITLE1=Louisiana Saturday Night
TTITLE2=A Fallen Star
TTITLE3=Teardrops In My Heart
TTITLE4=The More Happy Cajun
TTITLE5=D J For A Day
TTITLE6=The Big Appy Stud
TTITLE7=Colinda
TTITLE8=Artificial Rose
TTITLE9=Cry Cry Darling
TTITLE10=Allons A Lafayette (English)
TTITLE11=Blue Darling
TTITLE12=Allons A Lafayette (French)
TTITLE13=Git Along Little Doggies
TTITLE14=Hippie Ti Yo
TTITLE15=Corine Corina
EXTD=
EXTT0=
EXTT1=
EXTT2=
EXTT3=
EXTT4=
EXTT5=
EXTT6=
EXTT7=
EXTT8=
EXTT9=
EXTT10=
EXTT11=
EXTT12=
EXTT13=
EXTT14=
EXTT15=
PLAYORDER=
